PathFileType	4	(X/Y/Z)	D:\MotionData\Pi-Spi Study\20230118_AMCsubject1\Trimmed_right_abd_001_rotated.trc
DataRate	CameraRate	NumFrames	NumMarkers	Units	OrigDataRate	OrigDataStartFrame	OrigNumFrames
200.00	200.00	       12	35	mm	200.00	68	       271
Frame#	Time	C7			Sternum			r_AMC1			r_AMC2			r_AMC3			l_AMC1			l_AMC2			l_AMC3			PX			T8			r_humerous			r_elbow_medial			r_elbow_lateral			r_forearm			r_wrist_radius			r_wrist_ulna			r_MCP_1			r_MCP_3			l_humerous			l_elbow_medial			l_elbow_lateral			l_forearm			l_wrist_radius			l_wrist_ulna			l_MCP_1			l_MCP_3			r_ASIS			r_PSIS			l_ASIS			l_PSIS			r_IC			l_IC			TS			AI			AA			
		X1	Y1	Z1	X2	Y2	Z2	X3	Y3	Z3	X4	Y4	Z4	X5	Y5	Z5	X6	Y6	Z6	X7	Y7	Z7	X8	Y8	Z8	X9	Y9	Z9	X10	Y10	Z10	X11	Y11	Z11	X12	Y12	Z12	X13	Y13	Z13	X14	Y14	Z14	X15	Y15	Z15	X16	Y16	Z16	X17	Y17	Z17	X18	Y18	Z18	X19	Y19	Z19	X20	Y20	Z20	X21	Y21	Z21	X22	Y22	Z22	X23	Y23	Z23	X24	Y24	Z24	X25	Y25	Z25	X26	Y26	Z26	X27	Y27	Z27	X28	Y28	Z28	X29	Y29	Z29	X30	Y30	Z30	X31	Y31	Z31	X32	Y32	Z32	X33	Y33	Z33	X34	Y34	Z34	X35	Y35	Z35	

68	0.335	201.7038	1376.9309	-209.4961	327.6828	1301.0485	-198.4699	199.8604	1322.2948	-42.9029	236.7191	1318.0697	-9.6874	260.1148	1350.2169	-30.794	227.4232	1327.1525	-374.4119	268.4189	1318.0409	-404.6269	292.2467	1351.3133	-371.4823	378.9038	1110.938	-193.3261	147.8914	1193.658	-220.8383	294.8147	1125.1332	-6.994	209.6197	991.9884	-25.4739	236.6715	997.9592	33.7383	282.7233	839.4275	42.2708	326.9582	777.1687	18.3692	279.3683	770.456	37.3345	338.9495	677.5608	31.5361	297.3326	690.2439	43.0333	320.8489	1115.8872	-389.3343	220.482	999.7004	-406.8487	259.4739	993.5088	-446.8422	309.0246	841.3701	-440.7465	338.3869	770.385	-407.9395	301.647	766.3273	-435.0117	352.7271	693.373	-417.5104	309.4406	691.4185	-440.9558	362.5639	907.4642	-67.0821	174.9954	922.5528	-158.5764	372.1139	895.3106	-329.5878	179.4366	916.9105	-262.2562	274.9372	967.032	-41.6797	282.5067	940.8518	-368.4388	111.3363	1305.4104	-95.2555	102.6534	1204.6349	-87.561	188.1508	1301.3826	28.1915
69	0.34	201.7321	1376.9456	-209.4867	327.6959	1301.0538	-198.45	199.8905	1322.2552	-42.8733	236.7584	1318.1047	-9.6657	260.19	1350.1769	-30.7582	227.4242	1327.2274	-374.4301	268.4712	1318.0341	-404.6437	292.3623	1351.2448	-371.5054	378.9217	1110.8903	-193.3016	147.9242	1193.6594	-220.8202	294.8825	1125.1062	-6.9775	209.6334	991.9987	-25.44	236.5905	998.0213	33.9156	282.7555	839.4251	42.3018	326.9686	777.1674	18.4153	279.4174	770.4308	37.3624	338.8738	677.452	31.441	297.3358	690.2434	43.0487	320.8825	1115.9337	-389.3229	220.5115	999.7188	-406.8677	259.4972	993.5272	-446.8221	309.0391	841.3489	-440.703	338.4521	770.3408	-407.9191	301.6984	766.3117	-435.0399	352.7483	693.3378	-417.4717	309.4674	691.3791	-440.9147	362.638	907.4456	-67.045	175.0225	922.5557	-158.5572	372.174	895.2576	-329.5881	179.4604	916.9105	-262.2202	274.584	966.8405	-41.8189	282.5587	940.8288	-368.4345	111.3967	1305.432	-95.2249	102.6913	1204.665	-87.5306	188.188	1301.4174	28.2165
70	0.345	201.7575	1376.9524	-209.4723	327.7285	1301.0382	-198.4229	199.9274	1322.2532	-42.8522	236.7794	1318.0614	-9.6427	260.245	1350.1338	-30.733	227.4635	1327.2194	-374.4105	268.5226	1318.0409	-404.5969	292.3508	1351.2798	-371.4278	379.0106	1110.8788	-193.2853	148.1883	1193.7225	-220.9845	294.887	1125.1046	-6.9473	209.6578	991.9777	-25.4406	236.728	997.9468	33.7642	282.814	839.4164	42.308	327.0344	777.1197	18.4213	279.4364	770.4371	37.3626	338.908	677.4507	31.4507	297.3644	690.2441	43.0633	320.9082	1115.9103	-389.2761	220.5312	999.6977	-406.8263	259.5299	993.5174	-446.7976	309.0402	841.4164	-440.6979	338.4364	770.3355	-407.8409	301.6968	766.3509	-435.0143	352.783	693.3335	-417.4774	309.4998	691.3645	-440.8942	362.6406	907.4462	-67.0377	175.0362	922.5485	-158.5476	372.1535	895.2757	-329.5935	179.4735	916.8843	-262.2167	275.0527	966.9547	-41.656	282.5724	940.8245	-368.4329	111.418	1305.4492	-95.2106	102.7238	1204.6868	-87.4984	188.2058	1301.4338	28.2484
71	0.35	201.7913	1376.9473	-209.4409	327.788	1301.0571	-198.4201	199.9544	1322.2532	-42.8368	236.8213	1318.0429	-9.6049	260.2689	1350.1299	-30.7059	227.5037	1327.2238	-374.3837	268.5504	1318.0576	-404.5861	292.4143	1351.2642	-371.3989	379.0426	1110.8898	-193.2552	148.213	1193.6993	-220.9314	294.9426	1125.0659	-6.93	209.6985	991.9747	-25.4115	236.744	997.9612	33.7911	282.844	839.4014	42.3255	327.0596	777.1111	18.4125	279.4582	770.4263	37.3779	338.9361	677.4286	31.4671	297.371	690.2377	43.0701	320.9651	1115.9037	-389.2842	220.5563	999.6611	-406.8408	259.761	993.7327	-446.7724	309.0524	841.397	-440.6891	338.466	770.3936	-407.858	301.7046	766.3484	-435.0072	352.6757	693.428	-417.4344	309.5177	691.3762	-440.9199	362.7524	907.4272	-67.0335	175.0604	922.5275	-158.5202	372.1976	895.2382	-329.5852	179.5049	916.9037	-262.2023	275.0925	966.9727	-41.6384	282.6041	940.8177	-368.4522	111.4729	1305.4459	-95.1728	102.6953	1204.6429	-87.4925	188.2392	1301.4226	28.2828
72	0.355	201.807	1376.9238	-209.4142	327.8344	1301.0465	-198.3975	199.9804	1322.2532	-42.8104	236.8668	1318.0266	-9.6326	260.1808	1350.3563	-30.5611	227.5381	1327.2459	-374.3505	268.6464	1317.9983	-404.5922	292.4802	1351.1976	-371.3517	379.0995	1110.9097	-193.236	148.2416	1193.6964	-220.9185	294.9554	1125.0493	-6.9038	209.7264	991.9732	-25.405	236.7959	997.947	33.8116	282.8532	839.4088	42.3336	327.1423	777.0452	18.3952	279.4968	770.3782	37.3861	338.9942	677.4326	31.4853	297.4822	690.1879	43.0412	320.9965	1115.9358	-389.2762	220.6028	999.7337	-406.8382	259.6228	993.5267	-446.7618	309.0742	841.3708	-440.6182	338.5131	770.3214	-407.8298	301.7157	766.3323	-434.9628	352.7564	693.3781	-417.4274	309.5738	691.3328	-440.9063	362.7299	907.4239	-67.0169	175.0923	922.5416	-158.5163	372.223	895.239	-329.5323	179.5159	916.8965	-262.1665	275.1247	966.9543	-41.6446	282.4196	940.9563	-368.3592	111.4843	1305.4648	-95.1524	102.7346	1204.6741	-87.4839	188.2639	1301.4429	28.29
73	0.36	201.8326	1376.9297	-209.4061	327.8555	1301.0541	-198.3545	200.0053	1322.2288	-42.7998	236.8953	1318.019	-9.5888	260.2445	1350.2957	-30.5372	227.5767	1327.2496	-374.3337	268.6682	1318.0464	-404.5478	292.5903	1351.1213	-371.3735	379.1411	1110.9296	-193.1891	148.2706	1193.6974	-220.9015	294.9908	1125.0278	-6.8808	209.7727	991.9659	-25.3903	236.6776	998.0214	33.9784	282.9078	839.3896	42.3575	327.1509	777.101	18.4784	279.5663	770.4025	37.4043	339.0299	677.4195	31.4842	297.5001	690.1514	43.08	321.016	1115.8982	-389.2272	220.6292	999.7164	-406.834	259.6479	993.5077	-446.7401	309.0915	841.3539	-440.6007	338.5443	770.3225	-407.8084	301.6682	766.4359	-434.9513	352.73	693.378	-417.3912	309.5765	691.4034	-440.8878	362.7851	907.3893	-67.024	175.1318	922.5362	-158.4929	372.2975	895.2398	-329.555	179.5484	916.8604	-262.1753	275.182	966.9206	-41.6332	282.5507	940.9039	-368.3907	111.5596	1305.4473	-95.0934	102.7722	1204.6957	-87.454	188.294	1301.3826	28.3379
74	0.365	201.8657	1376.9479	-209.3836	327.8881	1301.0453	-198.3519	200.0542	1322.2342	-42.7434	236.8246	1318.127	-9.5672	260.231	1350.3175	-30.4923	227.6311	1327.2432	-374.3194	268.7253	1318.0303	-404.5037	292.6216	1351.1271	-371.2791	379.1981	1110.9427	-193.2311	148.3102	1193.693	-220.8802	295.015	1124.9956	-6.8209	209.7991	991.9464	-25.4021	236.8245	997.9447	33.8512	282.8839	839.3175	42.2691	327.186	777.082	18.4342	279.596	770.3622	37.3717	339.152	677.4864	31.5734	297.5495	690.1374	43.0865	321.0963	1115.8563	-389.2067	220.6534	999.7501	-406.8001	259.7051	993.5264	-446.7062	309.1833	841.3138	-440.5728	338.545	770.3103	-407.7595	301.7046	766.3818	-434.9153	352.81	693.3022	-417.3555	309.6342	691.2759	-440.8272	362.7755	907.3916	-67.0026	175.1526	922.5427	-158.4758	372.3435	895.205	-329.5257	179.5927	916.887	-262.1623	274.7837	966.711	-41.8408	282.493	940.9612	-368.3712	111.7334	1305.2942	-95.2612	102.7846	1204.6859	-87.4683	188.3218	1301.3649	28.3712
75	0.37	201.8791	1376.9341	-209.3652	327.9051	1301.0666	-198.2738	200.0846	1322.2147	-42.7577	236.9106	1318.0559	-9.5537	260.2701	1350.3276	-30.46	227.6605	1327.2599	-374.2906	268.7988	1318.0018	-404.4813	292.4678	1351.3253	-371.2808	379.2398	1110.937	-193.2076	148.33	1193.6924	-220.8591	295.0521	1124.9989	-6.8178	209.8028	991.9428	-25.3565	236.8701	997.9415	33.8621	282.9912	839.3475	42.3572	327.2055	777.0798	18.4643	279.6103	770.3619	37.456	339.2064	677.505	31.6029	297.6202	690.103	43.0394	321.135	1115.8627	-389.1984	220.9943	1000.7097	-406.7621	259.7389	993.5214	-446.7203	309.2135	841.2997	-440.5655	338.5629	770.4154	-407.7946	301.7856	766.3346	-434.9085	352.7245	693.423	-417.3641	309.8091	691.3319	-440.9251	362.7949	907.3771	-66.972	175.1838	922.5408	-158.4662	372.3609	895.2101	-329.5215	179.6111	916.8908	-262.1341	274.817	966.6577	-41.7655	282.6135	940.8626	-368.3593	111.6419	1305.4847	-95.0119	102.7409	1204.6676	-87.3821	188.3355	1301.3484	28.3892
76	0.375	201.903	1376.9469	-209.3365	327.9506	1301.0623	-198.278	200.1168	1322.2201	-42.6978	236.9262	1318.0409	-9.5152	260.3135	1350.3159	-30.4575	227.7061	1327.2483	-374.2541	268.8775	1317.9513	-404.4957	292.3399	1351.3012	-370.7998	379.276	1110.9397	-193.147	148.3841	1193.6979	-220.8664	295.0524	1125.031	-6.8179	209.8539	991.9609	-25.3424	236.8965	997.9341	33.8703	282.9741	839.2772	42.2919	327.264	777.0192	18.4698	279.6916	770.3141	37.421	339.2244	677.4838	31.6198	297.6051	690.1154	43.0552	321.1724	1115.8376	-389.1565	220.7724	999.764	-406.7695	259.7744	993.5234	-446.7001	309.2279	841.2992	-440.546	338.6039	770.4159	-407.7469	301.7961	766.3295	-434.8833	352.8205	693.3472	-417.3346	309.7271	691.3513	-440.8541	362.9125	907.3705	-66.9739	175.2202	922.5308	-158.4483	372.4009	895.1998	-329.5088	179.6549	916.8864	-262.1202	274.8389	966.7412	-41.7316	282.7129	940.8071	-368.2967	111.654	1305.4401	-94.9456	102.817	1204.6829	-87.4262	188.366	1301.3448	28.3892
77	0.38	201.9289	1376.9431	-209.3305	327.9753	1301.0709	-198.2459	200.1653	1322.199	-42.6766	236.9558	1317.9884	-9.4394	260.3456	1350.2644	-30.42	227.7563	1327.2617	-374.2286	268.9026	1317.9883	-404.4245	292.5971	1351.2452	-371.2124	379.3368	1110.9663	-193.1613	148.1762	1193.6196	-220.6459	295.0916	1124.9976	-6.7519	209.8874	991.9511	-25.3382	236.8059	997.997	34.043	283.0309	839.3881	42.4097	327.3035	777.0178	18.4737	279.7602	770.2656	37.5026	339.1596	677.3697	31.5201	297.6783	690.1154	43.0885	321.153	1115.9556	-389.1301	220.7747	999.6915	-406.7183	259.9873	993.7301	-446.6805	309.2669	841.3317	-440.5141	338.6798	770.3463	-407.712	301.8909	766.3229	-434.8887	352.8477	693.3084	-417.3195	309.7068	691.4603	-440.8263	362.8648	907.3501	-66.9602	175.2515	922.5455	-158.4239	372.4291	895.1763	-329.4926	179.6901	916.8843	-262.0911	274.8826	966.7228	-41.7633	282.8477	940.7405	-368.3407	111.665	1305.4474	-94.9593	102.8202	1204.6909	-87.4098	188.4335	1301.2726	28.424
78	0.385	201.9609	1376.9465	-209.2992	328.0302	1301.0311	-198.2289	200.184	1322.1893	-42.6478	236.9866	1318.0131	-9.4193	260.3951	1350.2781	-30.3589	227.7998	1327.252	-374.2274	268.9927	1317.9917	-404.4363	292.8108	1351.0754	-371.2037	379.444	1110.9481	-193.1137	148.4314	1193.6807	-220.8205	295.1584	1124.9197	-6.7392	209.889	991.9215	-25.3178	236.9303	997.9274	33.9291	283.044	839.2922	42.3728	327.357	776.9825	18.4913	279.6945	770.403	37.4921	339.303	677.446	31.6365	297.716	690.0901	43.1093	321.227	1115.8901	-389.1202	220.8463	999.7724	-406.7074	259.8456	993.5403	-446.6675	309.3297	841.2772	-440.4829	338.7523	770.2772	-407.6771	301.9351	766.292	-434.8596	353.1751	693.4599	-417.3012	309.7419	691.3823	-440.8046	362.9132	907.3621	-66.9468	175.2748	922.5369	-158.4158	372.4568	895.1913	-329.4743	179.7337	916.8973	-262.0669	274.9709	966.6401	-41.7114	282.7761	940.7603	-368.2885	111.7093	1305.4182	-94.9198	102.813	1204.3704	-87.7189	188.471	1301.2587	28.4454
79	0.39	201.9669	1376.9445	-209.2801	328.0182	1301.056	-198.1675	200.2058	1322.1703	-42.6278	237.0542	1317.9523	-9.4407	260.4093	1350.2662	-30.3194	227.8289	1327.2634	-374.2006	268.9908	1318.0075	-404.3749	292.682	1351.2357	-371.1498	379.4549	1110.9631	-193.1147	148.4541	1193.6907	-220.8136	295.1646	1124.9701	-6.7123	209.9326	991.9424	-25.3205	236.9873	997.9041	33.9052	283.0658	839.2465	42.347	327.3451	777.0463	18.5149	279.7533	770.3441	37.5343	339.2239	677.343	31.5285	297.7423	690.0495	43.1019	321.3233	1115.8121	-389.1081	220.9342	999.7576	-406.6789	259.9006	993.542	-446.6422	309.3836	841.2558	-440.4651	338.7573	770.3506	-407.696	301.9633	766.3032	-434.8695	353.1915	693.4433	-417.2816	309.8705	691.3002	-440.7645	362.9588	907.3541	-66.9326	175.2853	922.533	-158.4013	372.419	895.1453	-329.4267	179.7534	916.9142	-262.0407	274.9543	966.6375	-41.7394	282.8256	940.7469	-368.2925	111.9256	1305.2264	-95.052	102.8088	1204.3721	-87.652	188.4608	1301.2247	28.4786
